<?xml version="1.0" standalone="no"?>
<!DOCTYPE svg PUBLIC "-//W3C//DTD SVG 20010904//EN"
 "http://www.w3.org/TR/2001/REC-SVG-20010904/DTD/svg10.dtd">
<svg version="1.0" xmlns="http://www.w3.org/2000/svg"
 width="144.000000pt" height="144.000000pt" viewBox="0 0 144.000000 144.000000"
 preserveAspectRatio="xMidYMid meet">
<metadata>
Created by potrace 1.14, written by Peter Selinger 2001-2017
</metadata>
<g transform="translate(0.000000,144.000000) scale(0.100000,-0.100000)"
fill="#000000" stroke="none">
<path d="M1116 1253 c-41 -14 -96 -66 -96 -90 0 -7 -4 -13 -9 -13 -14 0 -50
-110 -62 -190 -21 -149 19 -352 81 -411 15 -15 29 -32 32 -39 5 -16 93 -25
152 -16 l46 7 0 50 0 49 -40 0 c-29 0 -40 -4 -40 -15 0 -8 -7 -15 -15 -15 -8
0 -15 7 -15 15 0 9 -9 15 -25 15 -35 0 -70 40 -96 109 -19 50 -20 70 -16 181
5 120 26 210 49 210 4 0 8 5 8 11 0 17 32 38 58 39 12 0 22 5 22 10 0 6 11 10
25 10 14 0 25 -4 25 -10 0 -5 8 -10 18 -10 21 -1 52 -23 52 -38 0 -6 5 -12 10
-14 18 -6 42 -149 35 -207 -7 -54 -32 -121 -46 -121 -17 0 -18 42 -4 150 21
158 22 150 -24 150 -33 0 -40 -4 -44 -22 l-4 -23 -2 23 c-1 22 -13 27 -56 22
-11 -1 -22 -6 -23 -11 -2 -5 -10 -16 -18 -23 -43 -44 -60 -265 -24 -323 23
-39 66 -45 95 -13 l18 20 19 -20 c26 -27 70 -25 106 5 46 39 66 126 60 267 -3
62 -10 124 -17 138 -40 88 -84 135 -134 145 -18 4 -39 8 -47 9 -8 2 -33 -3
-54 -11z m68 -310 c13 -58 -31 -201 -48 -158 -3 9 -6 40 -6 68 0 91 40 156 54
90z"/>
<path d="M198 1230 c-19 -14 -30 -38 -42 -92 -17 -76 -76 -392 -96 -513 -7
-38 -14 -78 -17 -87 -4 -15 3 -18 45 -18 l50 0 12 63 c6 34 16 82 20 107 5 25
16 81 24 125 8 44 23 122 32 173 10 50 21 92 25 92 4 0 12 -24 18 -52 35 -176
80 -420 86 -460 l7 -48 49 0 c27 0 49 4 49 10 0 5 -11 67 -24 137 -13 71 -41
218 -62 328 -33 180 -40 202 -65 227 -33 34 -75 37 -111 8z"/>
<path d="M530 1226 c0 -37 100 -585 115 -631 19 -58 29 -75 41 -75 8 0 14 -4
14 -10 0 -5 16 -10 35 -10 19 0 35 5 35 10 0 6 6 10 14 10 12 0 22 17 41 75
14 44 97 488 112 603 l6 42 -47 0 c-39 0 -46 -3 -50 -22 -3 -13 -26 -135 -51
-273 -25 -137 -49 -257 -52 -265 -9 -26 -20 14 -53 190 -17 91 -37 195 -45
231 -8 37 -15 76 -15 87 0 42 -11 52 -56 52 -30 0 -44 -4 -44 -14z"/>
<path d="M490 595 l0 -75 45 0 45 0 0 75 0 75 -45 0 -45 0 0 -75z"/>
<path d="M40 403 c0 -10 4 -25 10 -33 6 -9 5 -17 -3 -22 -9 -6 -9 -8 1 -8 17
0 27 29 14 42 -6 6 -8 17 -5 24 3 8 0 14 -6 14 -6 0 -11 -8 -11 -17z"/>
<path d="M144 395 c-7 -30 1 -55 18 -55 9 0 8 3 -2 10 -10 6 -11 10 -2 10 6 0
12 6 12 14 0 8 -6 17 -12 19 -10 4 -10 6 0 6 14 1 17 21 2 21 -5 0 -12 -11
-16 -25z"/>
<path d="M250 380 c0 -29 4 -40 15 -40 9 0 15 9 14 23 0 21 -1 21 -9 2 -8 -18
-9 -17 -9 8 -1 15 4 27 9 27 6 0 10 5 10 10 0 6 -7 10 -15 10 -11 0 -15 -11
-15 -40z"/>
<path d="M460 411 c0 -5 6 -12 13 -15 10 -5 10 -7 0 -12 -17 -8 -17 -41 0 -41
8 0 13 15 14 39 2 27 -2 38 -13 38 -7 0 -14 -4 -14 -9z"/>
<path d="M565 400 c-9 -27 3 -60 21 -60 10 0 14 12 14 40 0 43 -23 57 -35 20z
m21 -37 c-11 -11 -19 6 -11 24 8 17 8 17 12 0 3 -10 2 -21 -1 -24z"/>
<path d="M770 380 c0 -40 15 -54 26 -25 8 20 -4 65 -16 65 -6 0 -10 -18 -10
-40z m17 -12 c-3 -7 -5 -2 -5 12 0 14 2 19 5 13 2 -7 2 -19 0 -25z"/>
<path d="M873 380 c0 -25 2 -35 4 -22 2 12 2 32 0 45 -2 12 -4 2 -4 -23z"/>
<path d="M960 405 c0 -9 6 -12 15 -9 8 4 15 10 15 15 0 5 -7 9 -15 9 -8 0 -15
-7 -15 -15z"/>
<path d="M1063 380 c0 -25 2 -35 4 -22 2 12 2 32 0 45 -2 12 -4 2 -4 -23z"/>
<path d="M1150 378 c0 -49 5 -47 13 5 3 20 2 37 -4 37 -5 0 -9 -19 -9 -42z"/>
<path d="M1246 385 c-4 -20 -5 -40 -2 -43 3 -3 6 6 7 19 0 22 1 23 9 4 8 -18
9 -18 9 5 1 45 -16 56 -23 15z"/>
<path d="M1354 386 c1 -25 6 -41 16 -44 12 -4 13 -2 3 9 -6 8 -13 28 -16 44
-4 23 -4 20 -3 -9z"/>
<path d="M351 385 c-1 -25 15 -52 26 -42 4 5 2 11 -4 15 -6 4 -13 16 -16 27
l-5 20 -1 -20z"/>
<path d="M961 363 c-1 -14 5 -23 14 -23 9 0 15 9 14 23 0 21 -1 21 -8 2 l-8
-20 -5 20 c-5 18 -6 18 -7 -2z"/>
</g>
</svg>
