<svg xmlns="http://www.w3.org/2000/svg" xmlns:xlink="http://www.w3.org/1999/xlink" width="164.189" height="119.192" viewBox="0 0 164.189 119.192">
  <defs>
    <linearGradient id="linear-gradient" y1="0.5" x2="1" y2="0.5" gradientUnits="objectBoundingBox">
      <stop offset="0" stop-color="#224984"/>
      <stop offset="0.998" stop-color="#152c55"/>
    </linearGradient>
    <linearGradient id="linear-gradient-5" x1="-0.017" y1="0.5" x2="1.017" y2="0.5" gradientUnits="objectBoundingBox">
      <stop offset="0" stop-color="#d7b65c"/>
      <stop offset="1" stop-color="#987c34"/>
    </linearGradient>
    <linearGradient id="linear-gradient-6" x1="0" y1="0.5" x2="1" y2="0.5" xlink:href="#linear-gradient-5"/>
  </defs>
  <g id="Grupo_76" data-name="Grupo 76" transform="translate(-794.619 -227.502)">
    <g id="Grupo_74" data-name="Grupo 74" transform="translate(794.619 227.502)">
      <g id="Grupo_69" data-name="Grupo 69" transform="translate(36.131 112.298)">
        <path id="Caminho_127" data-name="Caminho 127" d="M918.721,613.052a1.312,1.312,0,0,1-.546.514,1.905,1.905,0,0,1-.9.194,2.249,2.249,0,0,1-.927-.183,1.619,1.619,0,0,1-.654-.514,1.457,1.457,0,0,1-.281-.762h.877a.9.9,0,0,0,.284.568.922.922,0,0,0,.665.237.79.79,0,0,0,.579-.2.7.7,0,0,0,.2-.518.667.667,0,0,0-.151-.449,1.065,1.065,0,0,0-.374-.277q-.223-.1-.611-.23a5.312,5.312,0,0,1-.772-.3,1.405,1.405,0,0,1-.507-.439,1.255,1.255,0,0,1-.208-.755,1.288,1.288,0,0,1,.2-.719,1.312,1.312,0,0,1,.575-.478,2.08,2.08,0,0,1,.863-.169,1.89,1.89,0,0,1,1.233.374,1.411,1.411,0,0,1,.521.978h-.885a.861.861,0,0,0-.269-.493.845.845,0,0,0-.6-.2.829.829,0,0,0-.554.176.626.626,0,0,0-.208.507.637.637,0,0,0,.144.428,1,1,0,0,0,.363.266q.22.1.6.226a5.262,5.262,0,0,1,.787.306,1.421,1.421,0,0,1,.518.449,1.3,1.3,0,0,1,.212.776A1.4,1.4,0,0,1,918.721,613.052Z" transform="translate(-915.4 -606.874)" fill="#969696"/>
        <path id="Caminho_128" data-name="Caminho 128" d="M930.493,609.448v1.538h1.869v.632h-1.869v1.574h2.085v.668h-2.9v-5.075h2.9v.661Z" transform="translate(-925.404 -607.025)" fill="#969696"/>
        <path id="Caminho_129" data-name="Caminho 129" d="M945.323,609.089a2.1,2.1,0,0,1,.8,1.215h-.862a1.377,1.377,0,0,0-.543-.654,1.609,1.609,0,0,0-.9-.245,1.645,1.645,0,0,0-.852.223,1.531,1.531,0,0,0-.589.632,2.065,2.065,0,0,0-.212.963,2.15,2.15,0,0,0,.215,1,1.5,1.5,0,0,0,.607.636,1.827,1.827,0,0,0,.91.219,1.6,1.6,0,0,0,1.085-.392,1.657,1.657,0,0,0,.546-1.075h-1.862v-.6h2.552v.783a2.428,2.428,0,0,1-.4,1.017,2.283,2.283,0,0,1-.827.73,2.467,2.467,0,0,1-1.176.273,2.548,2.548,0,0,1-1.308-.331,2.258,2.258,0,0,1-.877-.916,3.062,3.062,0,0,1,0-2.681,2.246,2.246,0,0,1,.874-.913,2.557,2.557,0,0,1,1.3-.327A2.475,2.475,0,0,1,945.323,609.089Z" transform="translate(-933.57 -606.925)" fill="#969696"/>
        <path id="Caminho_130" data-name="Caminho 130" d="M960.985,608.786V611.8a1.463,1.463,0,0,0,.3,1.007,1.217,1.217,0,0,0,1.668,0,1.467,1.467,0,0,0,.3-1.007v-3.012h.819V611.8a2.128,2.128,0,0,1-.539,1.578,1.931,1.931,0,0,1-1.423.536,1.9,1.9,0,0,1-1.409-.536,2.148,2.148,0,0,1-.532-1.578v-3.012Z" transform="translate(-946.774 -607.025)" fill="#969696"/>
        <path id="Caminho_131" data-name="Caminho 131" d="M978.907,613.861l-1.265-2.027h-.582v2.027h-.82v-5.075h1.79a1.854,1.854,0,0,1,1.319.424,1.47,1.47,0,0,1,.449,1.121,1.43,1.43,0,0,1-.334.978,1.592,1.592,0,0,1-.967.488l1.33,2.063Zm-1.848-2.609h.906q.992,0,.992-.877a.865.865,0,0,0-.241-.651,1.045,1.045,0,0,0-.751-.233h-.906Z" transform="translate(-958.04 -607.025)" fill="#969696"/>
        <path id="Caminho_132" data-name="Caminho 132" d="M993.681,608.9a2.36,2.36,0,0,1,.9.924,2.909,2.909,0,0,1,0,2.681,2.392,2.392,0,0,1-.9.927,2.617,2.617,0,0,1-2.559,0,2.413,2.413,0,0,1-.9-.927,2.884,2.884,0,0,1,0-2.681,2.381,2.381,0,0,1,.9-.924,2.639,2.639,0,0,1,2.559,0Zm-2.145.654a1.517,1.517,0,0,0-.593.64,2.326,2.326,0,0,0,0,1.941,1.513,1.513,0,0,0,.593.64,1.685,1.685,0,0,0,.869.223,1.655,1.655,0,0,0,.859-.223,1.523,1.523,0,0,0,.59-.64,2.325,2.325,0,0,0,0-1.941,1.526,1.526,0,0,0-.59-.64,1.657,1.657,0,0,0-.859-.223A1.688,1.688,0,0,0,991.536,609.555Z" transform="translate(-967.606 -606.874)" fill="#969696"/>
        <path id="Caminho_133" data-name="Caminho 133" d="M1012.024,613.052a1.31,1.31,0,0,1-.546.514,1.9,1.9,0,0,1-.9.194,2.253,2.253,0,0,1-.927-.183,1.617,1.617,0,0,1-.654-.514,1.459,1.459,0,0,1-.28-.762h.877a.9.9,0,0,0,.284.568.921.921,0,0,0,.665.237.79.79,0,0,0,.578-.2.694.694,0,0,0,.205-.518.664.664,0,0,0-.151-.449,1.062,1.062,0,0,0-.373-.277q-.224-.1-.611-.23a5.352,5.352,0,0,1-.773-.3,1.408,1.408,0,0,1-.507-.439,1.256,1.256,0,0,1-.209-.755,1.289,1.289,0,0,1,.2-.719,1.306,1.306,0,0,1,.575-.478,2.075,2.075,0,0,1,.863-.169,1.89,1.89,0,0,1,1.233.374,1.411,1.411,0,0,1,.521.978h-.884a.864.864,0,0,0-.27-.493.846.846,0,0,0-.6-.2.829.829,0,0,0-.553.176.625.625,0,0,0-.208.507.638.638,0,0,0,.144.428,1,1,0,0,0,.363.266q.22.1.6.226a5.31,5.31,0,0,1,.787.306,1.424,1.424,0,0,1,.517.449,1.3,1.3,0,0,1,.212.776A1.4,1.4,0,0,1,1012.024,613.052Z" transform="translate(-980.792 -606.874)" fill="#969696"/>
        <path id="Caminho_134" data-name="Caminho 134" d="M1029.251,609.448v1.538h1.869v.632h-1.869v1.574h2.085v.668h-2.9v-5.075h2.9v.661Z" transform="translate(-994.619 -607.025)" fill="#969696"/>
        <path id="Caminho_135" data-name="Caminho 135" d="M1046.912,611.891v1.97h-.82v-5.075h1.725a1.858,1.858,0,0,1,1.319.417,1.494,1.494,0,0,1,.442,1.143,1.455,1.455,0,0,1-.453,1.132,1.873,1.873,0,0,1-1.308.413Zm1.833-1.545a.862.862,0,0,0-.241-.658,1.1,1.1,0,0,0-.773-.226h-.819v1.761h.819Q1048.745,611.223,1048.745,610.346Z" transform="translate(-1006.996 -607.025)" fill="#969696"/>
        <path id="Caminho_136" data-name="Caminho 136" d="M1060.8,613.221h1.754v.64h-2.574v-5.075h.82Z" transform="translate(-1016.73 -607.025)" fill="#969696"/>
        <path id="Caminho_137" data-name="Caminho 137" d="M1072.687,612.947h-2.142l-.388,1.1h-.877l1.869-5h.942l1.861,5h-.877Zm-.23-.632-.841-2.372-.841,2.372Z" transform="translate(-1023.247 -607.211)" fill="#969696"/>
        <path id="Caminho_138" data-name="Caminho 138" d="M1090.878,613.879h-.82l-2.466-3.745v3.745h-.819v-5.068h.819l2.466,3.759v-3.759h.82Z" transform="translate(-1035.508 -607.042)" fill="#969696"/>
        <path id="Caminho_139" data-name="Caminho 139" d="M1106.88,608.9a2.364,2.364,0,0,1,.9.924,2.911,2.911,0,0,1,0,2.681,2.4,2.4,0,0,1-.9.927,2.617,2.617,0,0,1-2.559,0,2.417,2.417,0,0,1-.9-.927,2.884,2.884,0,0,1,0-2.681,2.385,2.385,0,0,1,.9-.924,2.64,2.64,0,0,1,2.559,0Zm-2.146.654a1.516,1.516,0,0,0-.593.64,2.327,2.327,0,0,0,0,1.941,1.512,1.512,0,0,0,.593.64,1.685,1.685,0,0,0,.869.223,1.654,1.654,0,0,0,.859-.223,1.523,1.523,0,0,0,.59-.64,2.325,2.325,0,0,0,0-1.941,1.527,1.527,0,0,0-.59-.64,1.657,1.657,0,0,0-.859-.223A1.688,1.688,0,0,0,1104.734,609.555Z" transform="translate(-1046.942 -606.874)" fill="#969696"/>
        <path id="Caminho_140" data-name="Caminho 140" d="M1125.223,613.052a1.308,1.308,0,0,1-.546.514,1.9,1.9,0,0,1-.9.194,2.253,2.253,0,0,1-.927-.183,1.616,1.616,0,0,1-.654-.514,1.457,1.457,0,0,1-.281-.762h.877a.9.9,0,0,0,.284.568.922.922,0,0,0,.665.237.79.79,0,0,0,.578-.2.694.694,0,0,0,.205-.518.664.664,0,0,0-.151-.449,1.062,1.062,0,0,0-.373-.277q-.223-.1-.611-.23a5.357,5.357,0,0,1-.773-.3,1.406,1.406,0,0,1-.506-.439,1.254,1.254,0,0,1-.209-.755,1.288,1.288,0,0,1,.2-.719,1.3,1.3,0,0,1,.575-.478,2.075,2.075,0,0,1,.862-.169,1.89,1.89,0,0,1,1.233.374,1.409,1.409,0,0,1,.521.978h-.884a.865.865,0,0,0-.269-.493.847.847,0,0,0-.6-.2.829.829,0,0,0-.553.176.626.626,0,0,0-.208.507.638.638,0,0,0,.143.428,1,1,0,0,0,.363.266q.22.1.6.226a5.315,5.315,0,0,1,.787.306,1.423,1.423,0,0,1,.517.449,1.3,1.3,0,0,1,.212.776A1.4,1.4,0,0,1,1125.223,613.052Z" transform="translate(-1060.128 -606.874)" fill="#969696"/>
        <path id="Caminho_141" data-name="Caminho 141" d="M1145.674,612.657a2.162,2.162,0,0,1-.912.887,3.039,3.039,0,0,1-1.434.317h-1.7v-5.075h1.7a3.07,3.07,0,0,1,1.434.313,2.147,2.147,0,0,1,.912.88,3.024,3.024,0,0,1,0,2.678Zm-1.01-.011a2.053,2.053,0,0,0,0-2.659,1.93,1.93,0,0,0-1.4-.474h-.812v3.608h.812A1.931,1.931,0,0,0,1144.664,612.646Z" transform="translate(-1073.955 -607.025)" fill="#969696"/>
        <path id="Caminho_142" data-name="Caminho 142" d="M1159.606,609.448v1.538h1.869v.632h-1.869v1.574h2.085v.668h-2.9v-5.075h2.9v.661Z" transform="translate(-1085.979 -607.025)" fill="#969696"/>
        <path id="Caminho_143" data-name="Caminho 143" d="M1179.216,613.052a1.308,1.308,0,0,1-.546.514,1.9,1.9,0,0,1-.9.194,2.253,2.253,0,0,1-.927-.183,1.616,1.616,0,0,1-.654-.514,1.456,1.456,0,0,1-.281-.762h.877a.9.9,0,0,0,.284.568.922.922,0,0,0,.665.237.79.79,0,0,0,.578-.2.692.692,0,0,0,.205-.518.664.664,0,0,0-.151-.449,1.063,1.063,0,0,0-.373-.277q-.223-.1-.611-.23a5.36,5.36,0,0,1-.773-.3,1.409,1.409,0,0,1-.507-.439,1.255,1.255,0,0,1-.208-.755,1.288,1.288,0,0,1,.2-.719,1.308,1.308,0,0,1,.575-.478,2.076,2.076,0,0,1,.862-.169,1.889,1.889,0,0,1,1.233.374,1.408,1.408,0,0,1,.521.978h-.884a.865.865,0,0,0-.269-.493.846.846,0,0,0-.6-.2.829.829,0,0,0-.553.176.627.627,0,0,0-.208.507.637.637,0,0,0,.144.428.992.992,0,0,0,.363.266q.22.1.6.226a5.286,5.286,0,0,1,.787.306,1.426,1.426,0,0,1,.518.449,1.3,1.3,0,0,1,.212.776A1.4,1.4,0,0,1,1179.216,613.052Z" transform="translate(-1097.969 -606.874)" fill="#969696"/>
        <path id="Caminho_144" data-name="Caminho 144" d="M1192.3,612.947h-2.142l-.388,1.1h-.877l1.869-5h.942l1.862,5h-.877Zm-.23-.632-.841-2.372-.841,2.372Z" transform="translate(-1107.08 -607.211)" fill="#969696"/>
        <path id="Caminho_145" data-name="Caminho 145" d="M1207.087,604.66v3.012a1.463,1.463,0,0,0,.3,1.007,1.216,1.216,0,0,0,1.667,0,1.465,1.465,0,0,0,.3-1.007V604.66h.819v3.012a2.128,2.128,0,0,1-.539,1.578,1.931,1.931,0,0,1-1.423.536,1.9,1.9,0,0,1-1.409-.536,2.147,2.147,0,0,1-.532-1.578V604.66Zm2.272-1.121-1.589.812v-.575l1.589-.877Z" transform="translate(-1119.256 -602.899)" fill="#969696"/>
        <path id="Caminho_146" data-name="Caminho 146" d="M1226.386,612.657a2.161,2.161,0,0,1-.913.887,3.036,3.036,0,0,1-1.434.317h-1.7v-5.075h1.7a3.067,3.067,0,0,1,1.434.313,2.146,2.146,0,0,1,.913.88,3.025,3.025,0,0,1,0,2.678Zm-1.01-.011a2.052,2.052,0,0,0,0-2.659,1.931,1.931,0,0,0-1.4-.474h-.812v3.608h.812A1.932,1.932,0,0,0,1225.375,612.646Z" transform="translate(-1130.522 -607.025)" fill="#969696"/>
        <path id="Caminho_147" data-name="Caminho 147" d="M1240.319,609.448v1.538h1.869v.632h-1.869v1.574h2.085v.668h-2.9v-5.075h2.9v.661Z" transform="translate(-1142.547 -607.025)" fill="#969696"/>
      </g>
      <g id="Grupo_72" data-name="Grupo 72" transform="translate(0 30.409)">
        <g id="Grupo_70" data-name="Grupo 70">
          <path id="Caminho_148" data-name="Caminho 148" d="M864.876,399.624h-23.1l-3.062-9.3H821.375l-2.757,9.3h-24l22.248-70.47h25.239Zm-18.766-5.983h10.545l-18.9-58.5h-16.5l-18.47,58.5h11.369l2.757-9.3h26.141Z" transform="translate(-794.619 -329.154)" fill="url(#linear-gradient)"/>
        </g>
        <g id="Grupo_71" data-name="Grupo 71" transform="translate(93.932)">
          <path id="Caminho_149" data-name="Caminho 149" d="M1178.876,399.624h-23.1l-3.062-9.3h-17.344l-2.757,9.3h-24l22.248-70.47h25.239Zm-18.766-5.983h10.545l-18.9-58.5h-16.5l-18.47,58.5h11.369l2.757-9.3h26.141Z" transform="translate(-1108.619 -329.154)" fill="url(#linear-gradient)"/>
        </g>
        <path id="Caminho_150" data-name="Caminho 150" d="M890.642,422.632h12.869l-6.48-21.926Z" transform="translate(-861.917 -379.302)" fill="url(#linear-gradient)"/>
        <path id="Caminho_151" data-name="Caminho 151" d="M1203.643,422.632h12.869l-6.48-21.926Z" transform="translate(-1081.285 -379.302)" fill="url(#linear-gradient)"/>
      </g>
      <g id="Grupo_73" data-name="Grupo 73" transform="translate(39.094 0)">
        <path id="Caminho_152" data-name="Caminho 152" d="M1011.276,244.7a43.235,43.235,0,0,0-4.665-3.491l-1.216-.778-1.257-.71-.625-.356-.311-.179-.323-.161-1.287-.643a62.055,62.055,0,0,0-10.709-4.025,87.331,87.331,0,0,0-45.181.005,62.218,62.218,0,0,0-10.708,4.024l-1.287.642-.323.161-.311.179-.625.356-1.258.71-1.216.778a43.268,43.268,0,0,0-4.667,3.488q.454-.576.923-1.147l.469-.574c.153-.2.333-.362.5-.545.685-.708,1.365-1.435,2.119-2.077.369-.331.737-.667,1.114-.991l1.177-.912L932.2,238l.3-.227.309-.209,1.239-.835a51.446,51.446,0,0,1,10.723-5.277,71.959,71.959,0,0,1,47.046.005,51.519,51.519,0,0,1,10.722,5.276l1.239.835.309.208.3.227.592.456,1.178.912c.378.324.745.661,1.115.991.755.642,1.434,1.369,2.12,2.076.166.183.346.35.5.545l.469.573Q1010.823,244.126,1011.276,244.7Z" transform="translate(-925.305 -227.502)" fill="url(#linear-gradient-5)"/>
      </g>
    </g>
    <g id="Grupo_75" data-name="Grupo 75" transform="translate(844.27 250.386)">
      <path id="Caminho_153" data-name="Caminho 153" d="M982.637,372.272,960.6,304h19.116l13.264,47.01L1006.337,304h19.116l-22.042,68.272Z" transform="translate(-960.595 -304)" fill="url(#linear-gradient-6)"/>
    </g>
  </g>
</svg>
